<?xml version="1.0" encoding="UTF-8" standalone="no"?>
<!-- Created with Inkscape (http://www.inkscape.org/) -->

<svg
   width="42.862499mm"
   height="30.1625mm"
   viewBox="0 0 42.862499 30.1625"
   version="1.1"
   id="svg1"
   xml:space="preserve"
   inkscape:version="1.3.2 (091e20e, 2023-11-25, custom)"
   sodipodi:docname="email.svg"
   xmlns:inkscape="http://www.inkscape.org/namespaces/inkscape"
   xmlns:sodipodi="http://sodipodi.sourceforge.net/DTD/sodipodi-0.dtd"
   xmlns="http://www.w3.org/2000/svg"
   xmlns:svg="http://www.w3.org/2000/svg"><sodipodi:namedview
     id="namedview1"
     pagecolor="#505050"
     bordercolor="#eeeeee"
     borderopacity="1"
     inkscape:showpageshadow="0"
     inkscape:pageopacity="0"
     inkscape:pagecheckerboard="0"
     inkscape:deskcolor="#505050"
     inkscape:document-units="mm"
     inkscape:zoom="0.76702441"
     inkscape:cx="396.3368"
     inkscape:cy="561.25984"
     inkscape:window-width="1920"
     inkscape:window-height="1057"
     inkscape:window-x="1072"
     inkscape:window-y="575"
     inkscape:window-maximized="1"
     inkscape:current-layer="layer1" /><defs
     id="defs1" /><g
     inkscape:label="Layer 1"
     inkscape:groupmode="layer"
     id="layer1"><path
       style="fill:#000000"
       d="M 0.64944,29.51307 0,28.86364 V 15.08125 1.29887 L 0.64944,0.64943 1.29887,0 h 20.13238 20.13239 l 0.64943,0.64943 0.64943,0.64944 v 13.78238 13.78239 l -0.64943,0.64943 -0.64943,0.64943 H 21.43125 1.29887 Z M 36.36698,26.49476 C 36.22874,26.36927 34.1511,24.5651 31.75,22.4855 c -2.40109,-2.0796 -4.69737,-4.08695 -5.10285,-4.46077 -0.83159,-0.76667 -0.66102,-0.83496 -3.1046,1.2431 -2.00759,1.70728 -2.29609,1.68447 -4.63176,-0.36614 -0.90159,-0.79155 -1.72549,-1.43919 -1.83088,-1.43919 -0.18171,0 -0.87846,0.59126 -6.23588,5.29167 -1.2439596,1.0914 -2.77952,2.43086 -3.41235,2.97656 l -1.1506,0.99219 h 15.16863 c 8.5161,0 15.05839,-0.10007 14.91727,-0.22816 z M 9.3265704,19.60354 C 12.05508,17.23804 14.2875,15.20301 14.2875,15.08125 14.2875,14.91192 8.03955,9.36776 3.90261,5.86615 3.46294,5.494 3.43959,5.95885 3.43959,15.08125 c 0,9.12245 0.0233,9.58725 0.46302,9.2151 0.25466,-0.21555 2.69544,-2.32732 5.4239604,-4.69281 z m 30.0361696,-9.29748 -0.0721,-4.7752 -5.29166,4.63208 c -2.91042,2.54764 -5.29167,4.76349 -5.29167,4.9241 0,0.16061 2.38125,2.36528 5.29167,4.89927 l 5.29166,4.60724 0.0721,-4.75615 c 0.0397,-2.61588 0.0397,-6.90499 0,-9.53134 z M 28.62663,10.41457 C 32.30902,7.19305 35.61954,4.30974 35.98334,4.00722 L 36.6448,3.45719 21.4899,3.44819 6.335,3.43919 9.8709604,6.54804 C 18.36299,14.01434 21.2436,16.42701 21.57618,16.3518 c 0.19535,-0.0442 3.36805,-2.7161 7.05045,-5.93762 z"
       id="path1" /></g></svg>
