<?xml version="1.0" encoding="UTF-8" standalone="no"?>
<!-- Uploaded to: SVG Repo, www.svgrepo.com, Generator: SVG Repo Mixer Tools -->

<svg
   height="800px"
   width="800px"
   version="1.1"
   id="Layer_1"
   viewBox="0 0 551.034 551.034"
   xml:space="preserve"
   sodipodi:docname="instagram.svg"
   inkscape:version="1.3.2 (091e20e, 2023-11-25, custom)"
   xmlns:inkscape="http://www.inkscape.org/namespaces/inkscape"
   xmlns:sodipodi="http://sodipodi.sourceforge.net/DTD/sodipodi-0.dtd"
   xmlns="http://www.w3.org/2000/svg"
   xmlns:svg="http://www.w3.org/2000/svg"><defs
   id="defs12" /><sodipodi:namedview
   id="namedview12"
   pagecolor="#505050"
   bordercolor="#eeeeee"
   borderopacity="1"
   inkscape:showpageshadow="0"
   inkscape:pageopacity="0"
   inkscape:pagecheckerboard="0"
   inkscape:deskcolor="#505050"
   inkscape:zoom="1.07625"
   inkscape:cx="399.53542"
   inkscape:cy="400"
   inkscape:window-width="1920"
   inkscape:window-height="1057"
   inkscape:window-x="1072"
   inkscape:window-y="575"
   inkscape:window-maximized="1"
   inkscape:current-layer="Layer_1" />
<g
   id="XMLID_13_"
   style="fill:#000000;fill-opacity:1">
	
		<linearGradient
   id="XMLID_2_"
   gradientUnits="userSpaceOnUse"
   x1="275.517"
   y1="4.5714"
   x2="275.517"
   y2="549.7202"
   gradientTransform="matrix(1 0 0 -1 0 554)">
		<stop
   offset="0"
   style="stop-color:#E09B3D"
   id="stop1" />
		<stop
   offset="0.3"
   style="stop-color:#C74C4D"
   id="stop2" />
		<stop
   offset="0.6"
   style="stop-color:#C21975"
   id="stop3" />
		<stop
   offset="1"
   style="stop-color:#7024C4"
   id="stop4" />
	</linearGradient>
	<path
   id="XMLID_17_"
   style="fill:#000000;fill-opacity:1"
   d="M386.878,0H164.156C73.64,0,0,73.64,0,164.156v222.722   c0,90.516,73.64,164.156,164.156,164.156h222.722c90.516,0,164.156-73.64,164.156-164.156V164.156   C551.033,73.64,477.393,0,386.878,0z M495.6,386.878c0,60.045-48.677,108.722-108.722,108.722H164.156   c-60.045,0-108.722-48.677-108.722-108.722V164.156c0-60.046,48.677-108.722,108.722-108.722h222.722   c60.045,0,108.722,48.676,108.722,108.722L495.6,386.878L495.6,386.878z" />
	
		<linearGradient
   id="XMLID_3_"
   gradientUnits="userSpaceOnUse"
   x1="275.517"
   y1="4.5714"
   x2="275.517"
   y2="549.7202"
   gradientTransform="matrix(1 0 0 -1 0 554)">
		<stop
   offset="0"
   style="stop-color:#E09B3D"
   id="stop5" />
		<stop
   offset="0.3"
   style="stop-color:#C74C4D"
   id="stop6" />
		<stop
   offset="0.6"
   style="stop-color:#C21975"
   id="stop7" />
		<stop
   offset="1"
   style="stop-color:#7024C4"
   id="stop8" />
	</linearGradient>
	<path
   id="XMLID_81_"
   style="fill:#000000;fill-opacity:1"
   d="M275.517,133C196.933,133,133,196.933,133,275.516   s63.933,142.517,142.517,142.517S418.034,354.1,418.034,275.516S354.101,133,275.517,133z M275.517,362.6   c-48.095,0-87.083-38.988-87.083-87.083s38.989-87.083,87.083-87.083c48.095,0,87.083,38.988,87.083,87.083   C362.6,323.611,323.611,362.6,275.517,362.6z" />
	
		<linearGradient
   id="XMLID_4_"
   gradientUnits="userSpaceOnUse"
   x1="418.306"
   y1="4.5714"
   x2="418.306"
   y2="549.7202"
   gradientTransform="matrix(1 0 0 -1 0 554)">
		<stop
   offset="0"
   style="stop-color:#E09B3D"
   id="stop9" />
		<stop
   offset="0.3"
   style="stop-color:#C74C4D"
   id="stop10" />
		<stop
   offset="0.6"
   style="stop-color:#C21975"
   id="stop11" />
		<stop
   offset="1"
   style="stop-color:#7024C4"
   id="stop12" />
	</linearGradient>
	<circle
   id="XMLID_83_"
   style="fill:#000000;fill-opacity:1"
   cx="418.306"
   cy="134.072"
   r="34.149" />
</g>
</svg>
